<svg xmlns="http://www.w3.org/2000/svg" viewBox="0 0 64 64" role="img" aria-label="Taxi">
  <rect x="4" y="54" width="56" height="4" rx="2" fill="#94a3b8"/>
  <rect x="22" y="6" width="20" height="8" rx="2" fill="#ffc72c"/>
  <rect x="26" y="9" width="12" height="2" rx="1" fill="#0b3d91"/>
  <path d="M16 30l4-13a4 4 0 0 1 4-3h16a4 4 0 0 1 4 3l4 13z" fill="#0b3d91"/>
  <path d="M20 28l3-10h18l3 10z" fill="#bfe3ff"/>
  <rect x="8" y="28" width="48" height="22" rx="6" fill="#0b3d91"/>
  <rect x="8" y="33" width="48" height="4" fill="#ffc72c"/>
  <rect x="24" y="40" width="16" height="6" rx="1.5" fill="#1e293b"/>
  <circle cx="16" cy="43" r="4" fill="#fff6c2"/><circle cx="48" cy="43" r="4" fill="#fff6c2"/>
  <rect x="10" y="50" width="8" height="5" rx="1.5" fill="#2d3748"/><rect x="46" y="50" width="8" height="5" rx="1.5" fill="#2d3748"/>
</svg>
